<?xml version="1.0" standalone="no"?>
<!DOCTYPE svg PUBLIC "-//W3C//DTD SVG 20010904//EN"
 "http://www.w3.org/TR/2001/REC-SVG-20010904/DTD/svg10.dtd">
<svg version="1.0" xmlns="http://www.w3.org/2000/svg"
 width="2659.000000pt" height="2659.000000pt" viewBox="0 0 2659.000000 2659.000000"
 preserveAspectRatio="xMidYMid meet">
<metadata>
Created by potrace 1.11, written by Peter Selinger 2001-2013
</metadata>
<g transform="translate(0.000000,2659.000000) scale(0.100000,-0.100000)"
fill="#000000" stroke="none">
<path d="M5877 24414 c-1 -1 -44 -5 -94 -8 -51 -4 -103 -9 -115 -11 -13 -3
-39 -7 -58 -9 -210 -27 -517 -127 -735 -239 -200 -103 -412 -243 -590 -391
-72 -60 -341 -329 -445 -445 -41 -46 -96 -107 -122 -135 -46 -49 -48 -50 -48
-25 0 15 -6 29 -12 32 -7 2 -49 -2 -93 -10 -44 -8 -91 -16 -105 -18 -369 -59
-674 -157 -959 -306 -105 -55 -297 -176 -365 -231 -168 -133 -314 -275 -441
-430 -237 -286 -422 -622 -559 -1015 -63 -181 -83 -250 -162 -547 -18 -71 -46
-150 -61 -175 -16 -25 -31 -53 -36 -61 -4 -8 -23 -40 -42 -70 -33 -51 -92
-149 -158 -258 -28 -47 -191 -376 -240 -484 -68 -149 -233 -591 -253 -678 -1
-8 -17 -64 -34 -125 -16 -60 -32 -119 -34 -130 -4 -18 -17 -81 -31 -145 -2
-14 -7 -36 -10 -50 -8 -40 -14 -72 -20 -110 -3 -20 -7 -46 -10 -59 -2 -13 -7
-49 -10 -80 -4 -31 -8 -67 -11 -81 -25 -148 -25 -696 0 -840 3 -14 7 -45 10
-70 25 -189 110 -518 165 -635 5 -11 29 -65 52 -120 75 -176 203 -392 334
-565 200 -265 416 -468 820 -772 169 -127 240 -201 324 -338 70 -113 160 -236
254 -345 78 -90 266 -278 337 -334 30 -25 60 -50 65 -56 28 -32 299 -200 416
-258 122 -60 360 -148 438 -162 17 -3 62 -12 100 -20 116 -24 170 -29 361 -29
168 -1 283 5 350 19 13 2 42 7 65 10 69 10 205 45 320 82 239 77 438 196 599
357 187 188 291 379 352 651 19 86 26 333 12 432 -33 225 -125 443 -273 642
-46 63 -83 116 -82 117 4 4 185 -32 237 -47 25 -7 51 -13 57 -15 30 -6 164
-60 235 -95 259 -127 422 -291 522 -524 21 -50 42 -99 47 -110 52 -121 289
-803 304 -876 2 -9 17 -61 33 -115 32 -103 63 -214 111 -394 16 -58 38 -141
51 -185 12 -44 30 -111 40 -150 25 -95 25 -60 0 61 -12 55 -23 115 -26 134 -3
19 -7 42 -9 50 -3 8 -7 31 -10 50 -3 19 -12 82 -20 140 -9 58 -18 128 -21 155
-3 28 -7 61 -10 75 -2 14 -7 50 -10 80 -3 30 -7 71 -10 90 -2 19 -6 71 -9 115
-4 44 -8 91 -10 105 -27 146 -26 1086 0 1395 16 186 22 234 39 350 31 202 67
378 111 535 14 52 28 102 30 110 29 116 137 404 231 617 53 122 363 749 437
884 19 35 51 96 72 134 274 513 601 972 911 1280 222 221 347 315 734 552 272
167 304 187 310 193 3 3 32 23 65 44 147 95 517 362 523 378 2 4 8 8 14 8 6 0
18 8 27 18 9 9 34 31 56 47 22 16 49 37 60 46 45 38 269 226 294 247 l26 22
-27 -10 c-16 -5 -38 -16 -50 -24 -13 -7 -93 -50 -178 -93 -156 -81 -194 -101
-370 -198 -52 -29 -116 -64 -142 -78 -125 -69 -234 -132 -486 -281 -150 -88
-287 -170 -305 -180 -306 -181 -493 -254 -667 -261 -215 -9 -430 83 -622 267
-78 74 -78 68 17 138 298 219 509 497 624 824 32 90 75 251 85 319 3 20 8 52
11 70 20 124 25 344 11 492 -6 68 -9 92 -22 165 -3 19 -8 46 -10 60 -23 137
-113 430 -175 571 -73 165 -206 389 -296 499 -281 343 -643 582 -1093 719
-127 39 -324 85 -415 97 -27 3 -57 8 -66 9 -63 12 -421 28 -432 19z m298 -438
c155 -12 219 -21 345 -52 149 -35 267 -77 405 -144 102 -49 299 -167 315 -189
3 -4 15 -14 27 -22 54 -37 182 -161 249 -241 131 -157 222 -312 305 -520 43
-108 103 -305 113 -373 3 -22 8 -53 11 -70 22 -123 28 -389 12 -470 -3 -16 -8
-46 -11 -65 -32 -227 -153 -517 -276 -665 -129 -154 -349 -325 -418 -325 -24
0 -241 82 -357 134 -16 8 -124 53 -240 101 -251 105 -327 136 -594 249 -113
48 -218 86 -236 86 -47 0 -92 -37 -313 -258 -200 -199 -257 -261 -406 -440
-444 -534 -790 -1188 -975 -1842 -36 -125 -83 -328 -96 -410 -3 -19 -10 -57
-15 -85 -13 -66 -38 -278 -47 -390 -13 -169 -6 -530 12 -620 2 -11 6 -41 9
-68 3 -26 7 -51 9 -55 3 -4 8 -29 11 -56 26 -189 133 -536 166 -536 5 0 7 10
5 23 -3 12 -7 33 -10 47 -2 14 -7 36 -9 50 -2 14 -14 72 -25 130 -11 58 -25
143 -31 190 -6 47 -12 99 -15 115 -25 183 -25 601 0 830 7 59 18 160 21 182 2
19 15 97 19 113 1 3 5 25 9 50 51 292 191 641 362 897 117 177 217 291 396
457 56 50 227 185 378 295 286 210 385 299 483 438 122 172 207 213 348 168
30 -9 68 -23 84 -30 17 -7 59 -25 95 -40 36 -14 79 -32 95 -40 17 -7 237 -100
490 -205 253 -106 474 -198 490 -205 17 -8 129 -55 250 -105 121 -51 223 -94
228 -97 4 -2 1 -10 -5 -17 -149 -151 -537 -644 -689 -876 -5 -8 -29 -45 -53
-81 -35 -55 -113 -180 -161 -261 -9 -15 -54 -94 -118 -208 -51 -91 -247 -493
-247 -506 0 -3 -10 -26 -21 -52 -61 -134 -226 -589 -255 -702 -2 -8 -20 -76
-39 -150 -20 -74 -38 -145 -41 -158 -2 -12 -13 -59 -24 -105 -10 -45 -22 -98
-25 -117 -3 -19 -10 -54 -16 -78 -5 -23 -12 -59 -15 -80 -3 -20 -7 -44 -9 -52
-2 -8 -7 -35 -10 -60 -3 -25 -10 -70 -15 -100 -5 -30 -12 -80 -15 -110 -3 -30
-8 -71 -10 -90 -11 -83 -14 -118 -16 -162 -2 -27 -5 -48 -8 -48 -4 0 -97 50
-191 103 -349 196 -678 318 -1013 376 -149 26 -245 34 -407 35 -294 1 -477
-33 -545 -99 -90 -87 -95 -245 -12 -333 51 -54 80 -65 197 -78 30 -3 75 -10
100 -16 25 -5 54 -11 64 -14 89 -18 252 -94 336 -156 164 -123 289 -300 353
-503 34 -108 38 -132 42 -265 7 -185 -31 -320 -133 -473 -139 -212 -378 -354
-727 -432 -544 -122 -1036 -3 -1490 360 -385 308 -731 826 -869 1305 -59 203
-72 286 -81 530 -3 74 -7 167 -9 205 -3 39 -7 156 -11 260 -8 264 -17 355 -35
355 -9 0 -19 -48 -35 -174 -21 -166 -92 -360 -178 -485 -17 -24 -82 -99 -146
-166 -97 -100 -119 -130 -133 -173 -31 -98 -13 -220 49 -332 l24 -45 -26 30
c-45 51 -230 335 -287 440 -75 138 -168 331 -225 470 -87 210 -177 533 -198
710 -4 28 -8 57 -10 65 -28 107 -25 542 4 732 6 35 13 83 16 108 4 25 13 79
22 120 9 41 17 84 18 95 7 52 88 355 129 481 100 313 245 641 407 924 265 464
439 674 1045 1260 120 116 192 209 257 332 70 132 110 275 83 297 -17 15 -42
-5 -145 -113 -121 -127 -420 -426 -516 -516 -122 -114 -242 -220 -249 -220 -4
0 -4 10 -2 23 3 12 8 42 11 67 16 137 91 373 167 524 36 71 141 244 157 256 3
3 19 22 34 42 129 174 468 443 762 605 170 93 459 219 517 226 20 2 31 -13 79
-112 71 -141 113 -269 144 -440 31 -167 39 -197 76 -298 71 -192 219 -413 278
-413 18 0 21 4 16 28 -3 15 -8 43 -11 62 -3 19 -8 38 -10 42 -2 3 -11 41 -19
85 -8 43 -17 92 -21 108 -10 48 -13 376 -4 425 5 25 11 65 15 90 30 213 138
460 282 648 79 104 379 403 533 532 29 25 58 50 64 56 58 56 301 216 433 284
162 84 451 183 593 204 19 3 53 8 75 11 22 3 46 8 54 11 8 2 82 7 165 11 83 3
153 7 154 9 2 1 9 1 15 -1 7 -2 48 -6 92 -9z"/>
<path d="M22357 24024 c-1 -1 -54 -4 -117 -8 -114 -6 -192 -13 -240 -21 -14
-2 -43 -7 -65 -11 -387 -59 -709 -219 -989 -492 -271 -264 -410 -554 -408
-854 0 -94 -1 -98 -21 -99 -90 -6 -285 -47 -327 -69 -8 -4 -28 -10 -45 -13
-35 -5 -163 -40 -255 -70 -133 -42 -284 -122 -354 -188 -17 -16 -34 -29 -37
-29 -14 0 -124 -150 -155 -213 l-35 -69 -22 19 c-12 11 -35 32 -52 46 -16 14
-40 34 -52 44 -12 11 -34 28 -48 39 -15 10 -46 33 -69 50 -269 200 -711 439
-1161 629 -226 95 -626 231 -825 280 -8 2 -62 15 -120 30 -109 26 -309 70
-370 80 -19 3 -42 8 -50 10 -8 2 -35 6 -60 9 -25 3 -54 8 -66 10 -12 2 -45 7
-74 11 -29 4 -60 8 -69 10 -9 1 -47 6 -86 10 -38 3 -83 8 -100 10 -221 27
-882 27 -1090 0 -16 -2 -57 -7 -90 -10 -65 -7 -71 -7 -225 -30 -184 -27 -423
-73 -544 -106 -22 -6 -46 -12 -55 -14 -83 -19 -298 -81 -421 -122 -41 -14 -79
-26 -85 -28 -5 -1 -21 -6 -35 -12 -14 -5 -61 -22 -105 -38 -44 -15 -93 -33
-110 -40 -16 -7 -61 -25 -100 -40 -62 -24 -140 -58 -295 -127 -104 -46 -376
-186 -515 -266 -343 -195 -715 -469 -715 -525 0 -22 35 -11 187 64 391 190
498 239 758 344 323 132 663 247 960 325 79 21 363 91 390 96 17 3 50 10 75
15 119 27 418 77 555 93 28 3 73 9 100 12 28 3 61 7 75 9 14 2 61 7 105 10 44
4 98 8 120 10 251 22 818 22 1045 0 19 -2 71 -7 115 -10 44 -3 91 -8 105 -10
14 -2 54 -7 90 -10 36 -4 72 -8 80 -10 8 -1 40 -6 70 -10 110 -14 322 -49 420
-70 14 -3 36 -7 50 -10 94 -18 160 -33 354 -82 243 -61 242 -61 511 -146 352
-111 751 -271 1130 -452 198 -95 276 -129 288 -127 11 3 9 -14 -13 -86 -21
-73 -28 -109 -29 -159 -1 -18 -5 -33 -10 -33 -5 0 -58 23 -117 51 -226 106
-270 125 -459 201 -453 182 -884 314 -1402 427 -112 25 -377 72 -473 85 -54 7
-192 27 -220 31 -14 2 -52 7 -85 10 -33 3 -76 8 -95 10 -32 4 -101 10 -220 20
-170 15 -330 19 -650 20 -362 0 -574 -8 -770 -30 -25 -2 -76 -7 -115 -11 -38
-3 -77 -8 -85 -9 -8 -2 -44 -6 -80 -10 -36 -4 -72 -9 -81 -10 -9 -2 -40 -6
-70 -10 -30 -3 -76 -10 -104 -15 -27 -5 -68 -12 -90 -15 -59 -8 -152 -25 -250
-45 -64 -13 -94 -19 -127 -25 -14 -3 -75 -17 -134 -31 -59 -14 -115 -27 -125
-29 -10 -2 -62 -15 -116 -30 -54 -15 -105 -28 -113 -30 -88 -20 -601 -187
-675 -219 -16 -8 -48 -19 -70 -26 -22 -7 -76 -29 -120 -48 -44 -18 -84 -35
-90 -36 -15 -4 -59 -23 -123 -52 -31 -14 -68 -30 -81 -36 -91 -34 -552 -264
-659 -327 -29 -17 -55 -31 -57 -31 -13 0 -379 -225 -520 -319 -205 -137 -466
-327 -611 -444 -123 -100 -328 -275 -439 -377 -94 -86 -463 -457 -532 -535
-34 -38 -76 -86 -94 -105 -208 -231 -482 -588 -699 -915 -90 -134 -320 -507
-320 -518 0 -2 -27 -53 -61 -113 -56 -100 -269 -525 -269 -537 0 -3 -15 -38
-34 -79 -89 -194 -205 -493 -293 -758 -48 -145 -145 -475 -158 -534 -7 -37
-12 -58 -38 -161 -14 -55 -33 -136 -41 -180 -9 -44 -18 -89 -20 -100 -14 -65
-46 -236 -51 -270 -3 -22 -10 -65 -15 -95 -5 -30 -12 -75 -15 -100 -7 -50 -14
-102 -20 -140 -2 -14 -7 -56 -11 -95 -3 -38 -8 -78 -10 -88 -2 -10 -6 -57 -10
-105 -3 -48 -8 -100 -9 -117 -27 -236 -27 -1078 0 -1335 2 -19 6 -71 10 -115
3 -44 8 -89 10 -100 2 -11 7 -51 10 -88 4 -37 8 -76 10 -85 1 -9 6 -42 9 -73
4 -31 8 -65 10 -75 2 -11 7 -41 10 -69 4 -27 9 -61 11 -75 3 -14 8 -36 10 -50
3 -14 8 -42 10 -62 3 -20 19 -103 35 -185 17 -81 33 -159 36 -173 3 -14 14
-62 24 -108 24 -102 24 -105 3 -98 -10 3 -49 8 -88 12 -38 3 -83 8 -100 10
-149 18 -483 23 -645 10 -608 -48 -1039 -264 -1293 -648 -69 -105 -644 -1266
-677 -1368 -44 -138 -55 -212 -55 -385 0 -164 5 -197 52 -355 30 -100 70 -194
130 -305 182 -332 563 -707 1048 -1032 313 -210 752 -452 1105 -610 25 -11 67
-30 94 -43 165 -74 373 -154 516 -199 358 -113 638 -198 710 -216 8 -2 87 -24
175 -49 466 -132 1337 -348 1625 -402 14 -3 52 -11 85 -19 33 -7 78 -16 100
-19 22 -4 48 -9 57 -12 9 -3 25 -6 35 -8 10 -2 52 -11 93 -19 41 -9 86 -18
100 -20 14 -3 77 -15 140 -27 63 -12 126 -24 140 -26 14 -3 111 -20 215 -39
105 -19 249 -44 320 -55 72 -12 141 -23 155 -26 14 -2 45 -6 70 -9 25 -3 52
-8 60 -10 8 -2 38 -7 65 -11 28 -3 59 -8 70 -10 11 -3 36 -6 55 -9 41 -5 108
-14 132 -18 9 -2 57 -32 105 -68 445 -331 1103 -658 1708 -849 55 -18 118 -38
140 -45 140 -46 500 -132 665 -160 19 -3 42 -8 50 -10 8 -2 33 -7 55 -10 23
-3 50 -7 60 -9 11 -2 45 -7 75 -11 30 -4 62 -9 70 -10 8 -2 44 -6 80 -9 36 -4
81 -9 100 -11 288 -36 884 -36 1160 0 19 2 62 7 95 11 33 3 67 8 76 9 9 2 40
6 69 10 29 4 61 8 71 10 9 2 39 7 66 11 26 5 50 9 53 9 3 1 25 5 50 10 25 5
47 9 50 10 3 1 25 5 50 9 285 50 905 238 1185 361 17 7 58 25 92 39 132 55
418 193 573 277 170 91 469 280 584 368 63 48 58 46 341 86 22 3 49 7 60 9 11
2 43 7 70 10 28 4 104 16 170 27 66 11 136 22 155 25 19 2 71 11 115 19 44 8
94 17 110 20 71 12 94 16 175 31 47 9 200 38 340 66 140 27 264 51 275 53 36
7 69 14 110 24 22 6 56 13 75 16 258 44 1239 288 1755 435 897 257 1149 349
1685 616 869 434 1508 927 1827 1412 91 137 182 332 209 447 63 260 49 504
-41 735 -34 88 -635 1281 -673 1338 -144 211 -346 373 -604 484 -134 58 -362
118 -506 134 -18 1 -41 5 -50 8 -77 23 -646 24 -782 2 -14 -3 -56 -7 -95 -11
-38 -3 -78 -8 -88 -12 -15 -4 -18 -1 -14 14 37 123 124 570 152 773 3 25 8 56
10 70 9 57 18 129 30 240 3 25 7 63 10 85 2 22 7 78 11 125 3 47 8 105 10 130
22 246 22 967 0 1180 -2 19 -7 78 -10 132 -4 53 -8 105 -10 115 -2 10 -7 50
-11 88 -3 39 -8 86 -11 105 -3 19 -7 49 -9 65 -2 17 -7 53 -10 80 -44 338
-164 891 -269 1237 -20 65 -36 121 -36 126 0 4 42 23 93 41 391 140 774 347
997 538 75 64 227 218 270 273 19 25 37 47 41 50 4 3 37 50 75 105 126 186
221 419 286 700 51 220 56 266 53 459 -2 201 -6 233 -41 389 -110 487 -384
958 -799 1372 -252 252 -498 445 -1128 883 -65 45 -201 142 -222 159 -5 5 -57
44 -115 88 -143 107 -184 139 -190 146 -3 3 -39 32 -80 64 -41 33 -104 84
-140 115 -36 30 -87 73 -114 95 -27 22 -67 58 -91 80 -23 22 -61 57 -86 79
-58 51 -293 282 -344 337 -256 281 -374 562 -321 768 24 93 62 157 141 237
121 123 336 246 530 303 115 34 126 36 308 56 40 5 77 21 77 34 0 20 -88 77
-123 80 -4 0 -22 3 -40 6 -32 6 -226 22 -230 19z m209 -77 c3 -3 -11 -9 -32
-12 -33 -5 -257 -50 -304 -60 -78 -17 -285 -110 -400 -179 -338 -205 -424
-474 -259 -813 99 -203 369 -519 673 -788 44 -38 89 -79 102 -90 78 -71 287
-235 470 -371 177 -131 242 -178 569 -410 579 -412 797 -593 1060 -876 253
-274 459 -589 584 -895 48 -118 106 -313 122 -411 6 -37 13 -78 15 -92 9 -51
13 -387 4 -445 -44 -318 -162 -664 -302 -889 -232 -372 -588 -654 -1093 -866
-55 -23 -113 -47 -130 -55 -96 -41 -459 -158 -560 -181 -5 -1 -39 -10 -75 -19
-36 -9 -74 -19 -85 -21 -11 -2 -45 -9 -75 -16 -30 -6 -57 -12 -60 -13 -23 -5
-90 -18 -110 -21 -14 -3 -70 -13 -125 -24 -55 -10 -122 -21 -150 -24 -27 -4
-61 -9 -75 -11 -26 -5 -76 -12 -150 -20 -25 -3 -54 -7 -65 -10 -17 -3 -95 -12
-180 -20 -11 -1 -45 -5 -75 -8 -30 -4 -82 -9 -115 -12 -33 -3 -78 -8 -100 -10
-82 -8 -172 -17 -225 -20 -30 -3 -77 -7 -105 -9 -27 -3 -81 -8 -120 -11 -38
-3 -86 -8 -105 -10 -19 -3 -62 -7 -95 -11 -33 -3 -72 -7 -86 -9 -14 -3 -43 -7
-64 -10 -53 -6 -107 -15 -135 -20 -14 -3 -60 -12 -103 -20 -206 -39 -506 -143
-599 -207 -14 -10 -29 -18 -33 -18 -4 0 -42 -23 -84 -52 -353 -239 -547 -565
-544 -918 1 -253 72 -445 247 -675 51 -66 100 -133 111 -150 18 -30 18 -30 -1
-15 -347 265 -582 640 -611 975 -10 116 -4 293 12 338 3 7 7 24 10 40 12 65
17 83 41 155 141 427 496 773 1025 1001 68 30 139 60 157 68 73 32 462 157
712 228 586 168 858 264 1145 405 462 226 752 515 899 895 35 93 61 181 72
250 3 22 8 43 10 46 17 28 25 335 11 439 -25 194 -75 352 -174 550 -141 283
-317 518 -648 868 -94 99 -147 152 -411 413 -426 420 -585 603 -830 953 -277
398 -379 609 -400 827 -8 88 -8 79 0 157 44 432 456 903 959 1096 81 31 212
71 264 80 48 9 90 17 113 21 14 3 63 8 110 11 47 4 86 8 88 9 6 5 303 -2 308
-8z m-2171 -1523 c-16 -14 -112 -65 -211 -114 -215 -105 -285 -158 -339 -255
-32 -57 -37 -76 -40 -143 -4 -95 13 -163 66 -261 128 -237 473 -559 1034 -963
303 -219 411 -298 525 -386 74 -58 137 -108 140 -111 3 -3 39 -35 80 -70 315
-271 534 -570 635 -865 78 -228 98 -491 55 -711 -5 -27 -12 -62 -14 -77 -11
-63 -63 -210 -108 -300 -102 -204 -265 -384 -478 -528 -165 -111 -347 -197
-585 -277 -103 -35 -343 -100 -435 -118 -139 -28 -252 -47 -375 -65 -82 -12
-160 -23 -172 -25 -12 -2 -57 -7 -100 -10 -43 -4 -80 -9 -83 -10 -3 -2 -45 -6
-95 -10 -49 -4 -101 -8 -115 -10 -14 -2 -61 -7 -105 -10 -44 -4 -91 -8 -105
-10 -14 -2 -54 -7 -90 -10 -36 -3 -72 -8 -80 -10 -8 -2 -40 -7 -70 -10 -30 -3
-71 -10 -90 -15 -19 -5 -51 -12 -70 -15 -19 -3 -53 -11 -75 -17 -22 -6 -44
-12 -50 -14 -41 -9 -153 -52 -217 -85 -112 -55 -193 -113 -273 -193 -57 -58
-147 -174 -151 -196 0 -3 -11 -27 -23 -55 -13 -27 -24 -58 -26 -68 -2 -9 -6
-21 -9 -26 -17 -27 -25 -190 -13 -278 11 -79 64 -224 100 -274 7 -8 -4 2 -24
24 -67 73 -167 259 -185 347 -16 80 -15 93 13 124 27 30 28 30 2 8 -15 -13
-29 -20 -32 -15 -7 14 1 168 12 224 6 30 13 63 15 74 6 32 51 146 79 200 106
209 350 417 637 543 152 67 332 128 625 212 658 188 950 322 1174 542 249 242
354 638 265 991 -33 130 -98 277 -181 410 -26 42 -122 178 -133 187 -3 3 -16
19 -29 35 -76 99 -154 180 -547 566 -282 276 -399 413 -508 597 -133 224 -181
386 -180 607 1 116 8 164 36 260 74 254 244 451 479 557 31 14 123 42 205 62
82 20 172 43 199 50 71 19 74 18 40 -10z m240 -199 c104 -218 338 -571 533
-801 208 -247 274 -316 794 -830 209 -207 308 -309 419 -430 124 -136 333
-417 411 -551 99 -172 180 -405 203 -586 2 -18 7 -50 10 -72 6 -44 6 -286 0
-325 -2 -14 -6 -42 -9 -62 -18 -132 -57 -271 -107 -388 -24 -56 -25 -56 -63
14 -44 79 -175 295 -229 376 -27 41 -50 81 -49 88 2 39 1 261 -2 282 -13 89
-18 120 -26 156 -34 153 -125 362 -220 509 -141 216 -357 441 -665 694 -59 48
-313 234 -470 344 -235 164 -228 159 -358 256 -304 229 -490 405 -631 601
-163 226 -206 383 -141 516 16 32 47 77 70 100 50 49 150 116 213 141 24 10
92 41 151 69 l106 51 21 -56 c11 -31 29 -74 39 -96z m-2815 -2408 c14 -3 51
-8 84 -12 61 -7 71 -8 164 -25 90 -16 97 -17 194 -44 291 -80 509 -211 673
-406 110 -131 203 -333 220 -480 9 -70 9 -159 0 -200 -3 -14 -10 -54 -16 -90
-34 -197 -74 -332 -133 -440 -162 -301 -412 -598 -746 -886 -201 -173 -289
-234 -585 -409 -316 -187 -460 -271 -475 -278 -8 -4 -31 -17 -50 -28 -19 -12
-127 -73 -240 -135 -113 -63 -216 -121 -230 -130 -14 -8 -131 -68 -260 -133
-209 -106 -289 -144 -542 -260 -38 -17 -98 -45 -135 -62 -38 -17 -160 -71
-273 -121 -113 -49 -220 -96 -237 -104 -18 -8 -101 -39 -185 -68 -242 -85
-472 -175 -465 -182 1 -2 25 3 52 11 63 20 69 13 8 -9 -27 -10 -57 -22 -68
-27 -142 -64 -1563 -569 -1670 -593 -10 -3 -92 -27 -110 -33 -43 -14 -553
-160 -640 -183 -60 -16 -137 -36 -170 -45 -112 -31 -330 -87 -353 -91 -13 -3
-49 -11 -80 -20 -120 -31 -573 -127 -701 -149 -14 -2 -66 -11 -116 -20 -49 -8
-103 -17 -120 -20 -16 -3 -46 -8 -65 -11 -19 -3 -48 -8 -65 -10 -39 -4 -112
-15 -133 -19 -10 -1 -44 -6 -77 -9 -58 -7 -83 -10 -155 -20 -19 -3 -62 -8 -95
-11 -33 -3 -73 -8 -90 -10 -215 -27 -654 -27 -865 0 -19 2 -66 6 -103 9 -38 3
-76 11 -84 18 -8 6 -25 13 -36 15 -191 24 -363 80 -506 165 -34 21 -67 38 -71
38 -5 0 -10 3 -12 8 -1 4 -25 25 -52 47 -157 126 -256 276 -283 430 -11 60 -8
232 4 290 7 33 15 69 17 80 22 103 122 325 207 461 169 269 431 568 674 769
33 28 65 55 71 60 6 6 47 37 90 70 43 33 81 62 84 65 32 35 725 500 745 500 2
0 31 18 64 40 33 22 62 40 65 40 2 0 40 21 83 46 109 65 522 294 529 294 3 0
18 8 32 18 15 10 65 39 112 64 47 25 148 80 225 123 266 147 500 264 565 280
87 23 223 15 354 -19 200 -53 590 -122 630 -112 13 3 34 14 46 24 l23 19 -29
20 c-16 11 -48 23 -71 26 -185 26 -470 132 -633 235 -182 115 -267 245 -275
418 -5 102 18 192 81 319 91 180 231 333 424 462 237 159 628 318 880 359 14
2 34 6 46 9 55 12 171 20 280 18 192 -2 329 -53 443 -162 112 -108 163 -217
167 -358 3 -139 -29 -247 -146 -481 -119 -239 -179 -408 -166 -474 6 -35 8
-36 44 -31 20 3 44 9 53 14 34 17 155 218 266 439 170 340 185 353 548 487
235 87 742 251 858 279 46 11 77 19 147 39 65 18 423 105 459 112 14 2 57 11
96 19 38 9 79 17 90 20 38 8 280 53 315 59 19 3 60 10 90 15 30 5 75 12 100
15 25 3 56 8 70 10 62 10 190 25 245 30 33 3 74 7 90 10 17 2 79 7 140 10 60
4 111 8 113 10 6 5 523 -3 552 -8z m2194 -4122 c43 -4 86 -8 95 -10 9 -1 41
-6 72 -9 31 -4 65 -8 75 -10 11 -2 42 -7 69 -11 28 -5 52 -9 55 -10 3 0 28 -5
55 -10 28 -4 55 -9 60 -11 577 -132 952 -319 1260 -628 151 -152 247 -295 316
-469 33 -82 67 -234 64 -280 -4 -60 -1 -42 -126 -599 -95 -425 -106 -478 -95
-478 19 0 185 86 431 224 220 124 417 285 503 413 59 88 70 116 66 168 -3 56
-21 88 -121 213 -233 292 -258 327 -268 370 -17 81 36 125 149 123 363 -5 685
-192 817 -476 60 -130 86 -281 65 -385 -4 -19 -18 -92 -31 -161 -23 -121 -27
-130 -103 -260 -96 -165 -128 -212 -206 -303 -282 -329 -815 -657 -1241 -765
-106 -27 -124 -48 -126 -146 -2 -111 -15 -353 -24 -425 -2 -19 -6 -57 -9 -85
-13 -119 -18 -160 -20 -162 -7 -8 -472 -139 -701 -198 -49 -12 -97 -25 -105
-29 -8 -3 -26 -8 -40 -10 -14 -3 -43 -10 -65 -16 -22 -6 -49 -13 -60 -15 -11
-3 -56 -14 -100 -25 -44 -11 -91 -23 -105 -25 -14 -3 -54 -13 -89 -21 -36 -9
-72 -17 -80 -19 -9 -2 -86 -19 -171 -39 -85 -19 -166 -37 -180 -39 -14 -3 -99
-21 -190 -40 -91 -20 -181 -38 -200 -41 -35 -6 -63 -11 -110 -21 -14 -3 -36
-7 -50 -10 -14 -3 -47 -9 -75 -14 -27 -6 -66 -12 -85 -15 -19 -3 -60 -10 -90
-16 -60 -11 -59 -11 -205 -35 -139 -23 -147 -24 -175 -30 -24 -5 -50 -9 -143
-20 -23 -3 -49 -7 -57 -10 -8 -2 -37 -6 -65 -10 -27 -3 -57 -8 -65 -10 -8 -2
-40 -6 -71 -10 -31 -3 -65 -7 -75 -9 -11 -2 -46 -7 -79 -11 -32 -4 -67 -8 -76
-10 -14 -3 -61 -9 -159 -20 -87 -10 -147 -17 -170 -20 -14 -2 -54 -6 -90 -9
-36 -4 -76 -8 -90 -10 -14 -3 -56 -7 -95 -11 -38 -3 -86 -8 -105 -10 -19 -2
-64 -7 -100 -10 -36 -2 -90 -7 -120 -10 -30 -2 -84 -7 -120 -10 -36 -3 -90 -7
-120 -10 -30 -2 -98 -7 -150 -10 -52 -3 -122 -8 -155 -10 -33 -3 -118 -7 -190
-11 -71 -3 -157 -7 -190 -9 -413 -23 -1332 -23 -1845 0 -185 8 -340 16 -396
21 -33 2 -100 7 -148 9 -49 3 -109 7 -135 9 -25 3 -82 7 -126 11 -96 6 -187
14 -235 20 -19 2 -69 7 -110 10 -41 3 -91 8 -110 10 -42 5 -115 13 -190 20
-30 3 -89 10 -130 15 -41 5 -97 12 -125 15 -27 2 -67 7 -87 10 -44 6 -73 10
-188 25 -47 6 -96 13 -110 15 -81 12 -112 17 -172 25 -36 5 -108 16 -160 24
-51 8 -109 17 -128 20 -40 6 -79 13 -130 22 -19 4 -44 8 -55 9 -33 5 -89 15
-105 20 -8 2 -35 7 -60 10 -25 4 -76 13 -115 20 -38 8 -108 21 -155 30 -70 12
-378 74 -455 91 -11 2 -32 6 -47 9 -16 3 -58 12 -95 21 -38 9 -79 18 -93 21
-14 2 -72 16 -130 30 -58 14 -116 27 -130 29 -14 3 -33 7 -42 10 -9 3 -25 6
-35 9 -10 2 -83 20 -163 40 -80 20 -152 38 -160 40 -8 2 -49 13 -90 23 -41 11
-120 32 -175 47 -55 14 -114 30 -131 36 -17 5 -40 12 -50 14 -10 2 -44 11 -74
20 -30 9 -91 26 -135 38 l-80 22 -3 63 c-2 35 -8 62 -14 62 -5 0 -36 -6 -67
-14 -31 -8 -86 -18 -123 -21 -61 -6 -79 -3 -200 35 -73 24 -153 49 -178 56
-333 94 -364 104 -414 144 -134 103 -228 243 -265 390 -21 82 -25 205 -9 272
5 24 12 54 14 66 8 39 63 145 103 198 59 78 149 144 301 219 112 56 242 97
310 98 126 2 130 -39 23 -234 -67 -120 -88 -250 -53 -319 43 -84 169 -156 305
-175 23 -3 52 -7 65 -10 93 -18 177 1 201 46 19 37 11 110 -27 239 -20 69 -42
145 -49 170 -7 25 -49 149 -94 275 -103 289 -110 320 -108 420 3 108 39 184
111 233 91 61 169 41 265 -67 102 -115 238 -209 412 -286 172 -75 610 -211
964 -298 155 -39 510 -116 608 -132 18 -3 70 -13 117 -21 47 -9 92 -17 100
-19 8 -1 31 -5 50 -9 19 -3 53 -8 75 -11 22 -4 47 -8 55 -10 8 -3 33 -7 55
-10 22 -3 54 -9 70 -12 17 -3 40 -8 53 -9 12 -2 32 -6 45 -8 12 -2 45 -7 72
-11 28 -4 57 -9 67 -11 9 -1 38 -6 65 -10 26 -3 57 -8 68 -10 11 -3 40 -7 65
-10 25 -3 52 -7 60 -9 8 -2 39 -7 69 -10 30 -4 61 -8 70 -10 15 -3 137 -21
206 -30 91 -12 357 -46 400 -50 28 -2 66 -7 85 -9 19 -3 64 -7 100 -11 36 -3
83 -8 105 -10 40 -4 102 -10 205 -20 30 -2 89 -7 130 -10 41 -3 93 -8 115 -10
22 -2 76 -7 120 -10 44 -3 103 -8 130 -10 28 -3 88 -7 135 -10 47 -3 119 -7
160 -10 327 -23 920 -32 1325 -20 289 8 472 15 515 20 25 2 83 7 130 10 47 3
103 8 125 10 22 2 72 6 110 10 39 3 84 8 100 10 17 2 62 7 100 10 39 3 84 7
100 10 17 2 62 7 100 10 39 4 79 9 90 11 10 2 49 6 85 10 36 3 72 8 81 9 9 2
40 6 70 10 47 5 317 46 397 59 15 3 70 12 122 21 52 8 115 20 140 25 25 5 59
11 75 14 53 8 409 84 567 121 84 20 164 39 178 41 14 3 48 11 75 19 28 8 61
16 75 19 30 6 347 94 485 135 241 71 592 197 760 271 22 10 69 30 105 45 126
53 386 184 494 250 275 166 472 340 538 475 114 233 55 449 -187 684 -126 123
-277 223 -540 356 -271 137 -450 206 -868 335 l-87 27 22 31 c12 18 47 58 76
89 48 50 58 57 86 53 17 -2 67 -7 110 -10z m-13202 -3926 c-4 -4 -45 -19 -92
-34 -449 -143 -851 -440 -1093 -807 -80 -122 -318 -584 -375 -728 -35 -88 -68
-199 -76 -254 -4 -21 -8 -41 -10 -45 -19 -31 -29 -398 -14 -511 27 -203 87
-395 184 -595 74 -152 138 -262 206 -350 25 -33 143 -181 147 -185 3 -3 31
-32 61 -64 64 -69 54 -63 -130 73 -175 130 -292 231 -434 375 -433 437 -583
869 -445 1286 18 57 578 1191 632 1280 61 102 172 217 293 303 114 81 336 174
494 206 96 20 104 21 155 27 28 4 53 8 56 10 3 2 55 6 115 10 60 3 110 7 111
8 1 1 51 1 112 1 60 0 107 -3 103 -6z m17718 -3 c250 -19 503 -83 683 -173
148 -74 286 -189 384 -321 87 -116 690 -1329 709 -1425 2 -10 5 -26 8 -35 22
-73 27 -236 11 -339 -55 -341 -308 -700 -750 -1064 -132 -109 -148 -114 -72
-24 103 122 220 303 297 459 66 135 128 299 136 359 2 16 6 32 9 37 20 33 40
215 40 370 0 152 -7 216 -36 334 -36 144 -61 207 -177 436 -316 623 -345 670
-522 851 -163 166 -306 267 -535 378 -113 55 -258 111 -357 137 -38 10 -68 21
-68 25 0 7 100 5 240 -5z m-12333 -5754 c7 1 60 -5 143 -17 14 -2 56 -7 95
-10 38 -4 72 -8 75 -10 3 -1 43 -6 90 -10 47 -4 93 -9 103 -11 10 -2 48 -6 85
-9 37 -3 83 -8 102 -10 19 -2 64 -7 100 -10 177 -16 206 -20 290 -45 249 -73
813 -189 1040 -215 73 -8 137 -17 150 -20 8 -2 47 -7 85 -11 39 -3 84 -8 100
-9 17 -2 66 -6 110 -10 44 -4 96 -8 115 -10 266 -26 979 -25 1258 1 31 3 81 7
112 9 74 6 179 16 210 20 14 2 50 7 80 10 30 3 82 10 115 15 33 5 80 12 105
15 25 3 56 8 70 10 14 3 41 7 60 10 19 3 96 17 170 31 74 14 149 28 165 31 63
10 251 55 470 112 83 22 184 42 225 46 41 3 91 8 110 10 19 2 64 7 100 10 36
3 81 8 100 10 19 2 60 7 90 10 98 10 154 16 180 20 14 2 54 7 90 10 85 9 117
13 165 20 l40 6 -29 -17 c-77 -43 -593 -257 -711 -294 -22 -7 -53 -18 -70 -25
-51 -22 -482 -159 -535 -170 -8 -1 -35 -8 -60 -15 -25 -7 -52 -14 -60 -15 -8
-2 -71 -18 -140 -35 -111 -28 -166 -40 -250 -56 -14 -3 -59 -12 -100 -20 -41
-9 -86 -17 -100 -19 -14 -2 -68 -11 -120 -19 -52 -9 -112 -18 -132 -21 -21 -3
-53 -7 -72 -10 -66 -9 -222 -26 -281 -31 -33 -2 -73 -6 -90 -9 -181 -25 -845
-26 -1145 0 -25 2 -76 7 -115 10 -38 3 -83 8 -100 10 -16 2 -50 7 -75 10 -76
8 -134 16 -160 20 -14 2 -43 6 -65 10 -23 3 -52 8 -65 10 -14 3 -47 8 -75 11
-27 3 -53 8 -56 10 -4 2 -24 6 -45 10 -22 3 -59 10 -84 16 -25 5 -58 12 -75
15 -94 15 -366 83 -585 144 -167 48 -580 185 -655 218 -23 11 -56 23 -70 27
-22 6 -258 105 -407 171 -147 65 -192 93 -113 72 18 -5 37 -9 42 -7z"/>
<path d="M18304 16388 l-19 -23 23 19 c21 18 27 26 19 26 -2 0 -12 -10 -23
-22z"/>
<path d="M6701 13284 c0 -11 3 -14 6 -6 3 7 2 16 -1 19 -3 4 -6 -2 -5 -13z"/>
<path d="M6752 13080 c0 -14 2 -19 5 -12 2 6 2 18 0 25 -3 6 -5 1 -5 -13z"/>
<path d="M6772 13000 c0 -14 2 -19 5 -12 2 6 2 18 0 25 -3 6 -5 1 -5 -13z"/>
<path d="M6781 12954 c0 -11 3 -14 6 -6 3 7 2 16 -1 19 -3 4 -6 -2 -5 -13z"/>
<path d="M6792 12920 c0 -8 4 -26 8 -40 6 -20 8 -21 8 -5 0 11 -3 29 -8 40 -5
12 -8 14 -8 5z"/>
<path d="M6810 12836 c0 -8 4 -17 9 -20 5 -4 7 3 4 14 -6 23 -13 26 -13 6z"/>
</g>
</svg>
